<?xml version="1.0" encoding="UTF-8" standalone="no"?>
<!-- Created with Inkscape (http://www.inkscape.org/) -->

<svg
   xmlns:dc="http://purl.org/dc/elements/1.1/"
   xmlns:cc="http://creativecommons.org/ns#"
   xmlns:rdf="http://www.w3.org/1999/02/22-rdf-syntax-ns#"
   xmlns:svg="http://www.w3.org/2000/svg"
   xmlns="http://www.w3.org/2000/svg"
   xmlns:sodipodi="http://sodipodi.sourceforge.net/DTD/sodipodi-0.dtd"
   xmlns:inkscape="http://www.inkscape.org/namespaces/inkscape"
   width="100"
   height="100"
   viewBox="0 0 26.458333 26.458334"
   version="1.1"
   id="svg8"
   inkscape:version="0.92.4 (5da689c313, 2019-01-14)"
   sodipodi:docname="cat_imple_v_ngo.svg">
  <defs
     id="defs2" />
  <sodipodi:namedview
     id="base"
     pagecolor="#ffffff"
     bordercolor="#666666"
     borderopacity="1.0"
     inkscape:pageopacity="0.0"
     inkscape:pageshadow="2"
     inkscape:zoom="1.979899"
     inkscape:cx="-0.44009631"
     inkscape:cy="63.581195"
     inkscape:document-units="px"
     inkscape:current-layer="layer1"
     showgrid="false"
     units="px"
     inkscape:window-width="944"
     inkscape:window-height="503"
     inkscape:window-x="0"
     inkscape:window-y="100"
     inkscape:window-maximized="0" />
  <metadata
     id="metadata5">
    <rdf:RDF>
      <cc:Work
         rdf:about="">
        <dc:format>image/svg+xml</dc:format>
        <dc:type
           rdf:resource="http://purl.org/dc/dcmitype/StillImage" />
        <dc:title />
      </cc:Work>
    </rdf:RDF>
  </metadata>
  <g
     inkscape:label="Capa 1"
     inkscape:groupmode="layer"
     id="layer1"
     transform="translate(0,-270.54165)">
    <path
       style="fill:#000000;stroke-width:0.22287814"
       d="m 11.349181,296.36539 c -2.587656,-0.33908 -5.8575675,-2.01201 -7.1854405,-3.67618 l -0.5882188,-0.7372 -0.8709294,0.44432 c -0.4790103,0.24437 -0.9049751,0.41027 -0.9465886,0.36866 -0.1392718,-0.13927 0.6253807,-4.63589 0.7883346,-4.63589 0.088396,0 0.9016607,0.30927 1.8072472,0.68725 0.9055858,0.37799 1.897258,0.78763 2.2037162,0.91033 l 0.557195,0.22309 -0.8357933,0.43226 c -0.4596861,0.23775 -0.8357926,0.51739 -0.8357926,0.62144 0,0.10404 0.4413576,0.59599 0.9807946,1.09322 2.9725096,2.73998 7.6706086,3.25845 11.2744206,1.24424 l 1.002596,-0.56037 0.502087,0.62742 c 0.276147,0.34506 0.502585,0.69579 0.503195,0.77938 0.0039,0.52823 -2.940335,1.8602 -4.567895,2.06655 -2.178862,0.27626 -2.46677,0.28473 -3.788928,0.11142 z m 9.442266,-4.07383 c -0.05563,-0.0726 -0.537226,-4.83108 -0.488943,-4.83108 0.02627,0 0.401226,0.20854 0.833239,0.46343 0.432013,0.2549 0.880956,0.40444 0.997653,0.33233 0.116696,-0.0721 0.320587,-0.63665 0.453091,-1.25449 0.931277,-4.3424 -0.858517,-8.46675 -4.704339,-10.84053 -0.712432,-0.43973 -1.29533,-0.82045 -1.29533,-0.84603 0,-0.0256 0.112799,-0.37008 0.250672,-0.76557 0.21926,-0.62898 0.323992,-0.70099 0.835792,-0.57468 0.966557,0.23854 2.565145,1.37729 3.904194,2.78114 1.64746,1.72719 2.722774,3.97271 3.08171,6.43538 0.270525,1.85606 0.21304,2.38763 -0.645981,5.97359 -0.08714,0.36377 0.07172,0.6054 0.661546,1.00619 l 0.776232,0.52746 -2.314741,0.81605 c -1.273107,0.44881 -2.328266,0.79838 -2.344795,0.77681 z m -9.107949,-2.69557 c 0,-0.37771 -0.238341,-0.68631 -0.796463,-1.03126 -0.681357,-0.4211 -0.8809,-0.45376 -1.3807057,-0.22604 -0.5166937,0.23542 -0.6298658,0.20648 -0.978852,-0.25028 -0.2170352,-0.28408 -0.5174974,-0.8091 -0.6676935,-1.16673 -0.2452243,-0.58389 -0.2232738,-0.68329 0.2151684,-0.97442 0.6792323,-0.45098 0.7099284,-2.17531 0.042498,-2.38715 -0.6077906,-0.1929 -0.5596456,-0.73808 0.1636977,-1.85364 0.432276,-0.66667 0.7076514,-0.8947 0.9472319,-0.78437 1.0524032,0.48468 2.4551202,-0.23475 2.4551202,-1.25919 0,-0.46321 0.998714,-0.72838 1.993782,-0.52936 0.497656,0.0996 0.691095,0.28876 0.799441,0.78206 0.204884,0.93283 1.077303,1.45533 1.90704,1.14214 0.580483,-0.21911 0.696759,-0.17954 1.187934,0.40418 0.831856,0.98861 0.939433,1.5562 0.380703,2.00863 -0.671246,0.54354 -0.662749,2.02724 0.01418,2.4767 0.438443,0.29113 0.460394,0.39053 0.215168,0.97442 -0.150195,0.35763 -0.454544,0.88781 -0.676331,1.17817 -0.349565,0.45766 -0.469538,0.49247 -0.901187,0.26145 -0.745308,-0.39887 -1.99643,0.24628 -2.171082,1.11955 -0.126913,0.63456 -0.170085,0.65417 -1.440244,0.65417 -1.236341,0 -1.309408,-0.0301 -1.309408,-0.53903 z m 2.660485,-3.22611 c 1.605389,-1.13864 0.752331,-3.81272 -1.216299,-3.81272 -1.049675,0 -1.581511,0.30244 -2.018799,1.14807 -0.635964,1.22981 -0.108558,2.52259 1.24783,3.05867 0.647897,0.25607 1.234743,0.13971 1.987268,-0.39402 z M 1.1794639,285.53414 c -0.09486,-2.83526 0.484655,-5.14351 1.8098051,-7.20858 1.4899852,-2.32194 4.6216016,-4.57868 7.04904,-5.07977 0.83135,-0.17161 0.869465,-0.21884 0.976555,-1.21024 l 0.111439,-1.03167 1.958792,1.48623 1.958791,1.48624 -0.732962,0.62193 c -0.403128,0.34205 -1.309659,1.07585 -2.014511,1.63064 l -1.281549,1.00874 v -1.11122 -1.11121 l -0.835793,0.22657 c -4.2164969,1.14299 -7.4867909,5.68078 -7.1495838,9.92061 0.072545,0.9121 0.046191,0.96079 -0.5198772,0.96079 -0.3279609,0 -0.7549384,0.0609 -0.9488389,0.13529 -0.2813734,0.10796 -0.358351,-0.0383 -0.3813072,-0.72435 z"
       id="path827"
       inkscape:connector-curvature="0" />
  </g>
</svg>
