<?xml version="1.0" encoding="UTF-8" standalone="no"?>
<!-- Created with Inkscape (http://www.inkscape.org/) -->

<svg
   xmlns:dc="http://purl.org/dc/elements/1.1/"
   xmlns:cc="http://creativecommons.org/ns#"
   xmlns:rdf="http://www.w3.org/1999/02/22-rdf-syntax-ns#"
   xmlns:svg="http://www.w3.org/2000/svg"
   xmlns="http://www.w3.org/2000/svg"
   xmlns:sodipodi="http://sodipodi.sourceforge.net/DTD/sodipodi-0.dtd"
   xmlns:inkscape="http://www.inkscape.org/namespaces/inkscape"
   width="100"
   height="100"
   viewBox="0 0 26.458333 26.458334"
   version="1.1"
   id="svg8"
   inkscape:version="0.92.4 (5da689c313, 2019-01-14)"
   sodipodi:docname="cat_icono_eva_v_ngo.svg">
  <defs
     id="defs2" />
  <sodipodi:namedview
     id="base"
     pagecolor="#ffffff"
     bordercolor="#666666"
     borderopacity="1.0"
     inkscape:pageopacity="0.0"
     inkscape:pageshadow="2"
     inkscape:zoom="1.979899"
     inkscape:cx="144.47737"
     inkscape:cy="63.581195"
     inkscape:document-units="px"
     inkscape:current-layer="layer1"
     showgrid="false"
     units="px"
     inkscape:window-width="944"
     inkscape:window-height="405"
     inkscape:window-x="8"
     inkscape:window-y="45"
     inkscape:window-maximized="0" />
  <metadata
     id="metadata5">
    <rdf:RDF>
      <cc:Work
         rdf:about="">
        <dc:format>image/svg+xml</dc:format>
        <dc:type
           rdf:resource="http://purl.org/dc/dcmitype/StillImage" />
        <dc:title />
      </cc:Work>
    </rdf:RDF>
  </metadata>
  <g
     inkscape:label="Capa 1"
     inkscape:groupmode="layer"
     id="layer1"
     transform="translate(0,-270.54165)">
    <path
       style="fill:#000000;stroke-width:0.22622521"
       d="m 2.1308257,292.8809 v -3.05404 H 5.184866 8.2389062 v 3.05404 3.05404 H 5.184866 2.1308257 Z m 4.9769541,-0.11312 v -1.8098 H 5.2979788 3.4881769 v 1.8098 1.80981 h 1.8098019 1.809801 z m 10.6325862,0 v -3.16715 h 3.054039 3.05404 v 3.16715 3.16716 h -3.05404 -3.054039 z m 4.750728,0 v -1.8098 h -1.809801 -1.809801 v 1.8098 1.80981 h 1.809801 1.809801 z m -12.442386,-0.11311 v -3.05404 h 2.940928 2.940927 v 3.05404 3.05404 h -2.940927 -2.940928 z m 4.750729,0.11311 v -1.8098 h -1.809801 -1.809802 v 1.8098 1.80981 h 1.809802 1.809801 z m 4.655608,-3.92424 c 0.12628,-0.32909 -5.642718,-5.19337 -5.879026,-4.95707 -0.219082,0.21908 -0.151917,3.56926 0.07624,3.80256 0.130191,0.13313 0.04411,0.41814 -0.226225,0.74899 l -0.436393,0.53406 -0.444924,-0.53406 c -0.497051,-0.59665 -0.571122,-0.87342 -0.233752,-0.87342 0.133073,0 0.226225,-0.79177 0.226225,-1.92291 0,-1.05761 -0.05049,-1.92292 -0.112193,-1.92292 -0.224174,0 -5.9958875,4.82316 -5.9958875,5.0105 0,0.10602 -0.3054036,0.19269 -0.6786756,0.19269 -0.3732712,0 -0.6772853,-0.0763 -0.6755863,-0.16967 0.0092,-0.50575 0.3007488,-1.16642 0.4688636,-1.06252 0.1068597,0.0661 1.6791585,-1.10582 3.4939982,-2.60413 2.1038346,-1.73691 3.4884436,-2.72421 3.8204766,-2.72421 0.669215,0 1.559885,0.61342 4.765157,3.28183 1.434992,1.19464 2.699406,2.11624 2.809811,2.048 0.23,-0.14214 0.474369,0.38483 0.474369,1.02297 0,0.34438 -0.161969,0.43395 -0.784688,0.43395 -0.564842,0 -0.751936,-0.0853 -0.667785,-0.30464 z m -9.180112,-7.72635 c 0,-0.51948 0.08295,-0.56557 1.018014,-0.56557 0.964482,0 1.018013,-0.0334 1.018013,-0.63429 0,-0.74333 -0.92653,-1.69774 -2.5390208,-2.61543 -1.2618808,-0.71816 -2.1433537,-2.07027 -2.3546576,-3.6119 l -0.1447752,-1.05625 h 1.0487625 c 0.9678638,0 1.0487636,-0.0437 1.0487636,-0.56557 v -0.56557 h 3.6196035 3.619602 v 0.56557 c 0,0.52193 0.08091,0.56557 1.048765,0.56557 h 1.048762 L 18.56199,273.69 c -0.184476,1.34589 -1.12445,2.95685 -2.004747,3.43579 -0.375843,0.20448 -1.179607,0.75591 -1.786142,1.22539 -0.881419,0.68226 -1.10279,0.98879 -1.10279,1.52704 0,0.64729 0.03947,0.6734 1.018014,0.6734 0.935063,0 1.018013,0.0461 1.018013,0.56557 v 0.56556 h -2.714702 -2.714703 z m 3.707028,-3.74345 c 0.646498,-0.76832 1.269926,-2.61567 1.269926,-3.76305 v -0.75072 h -2.293398 -2.2934 l 0.148198,1.26092 c 0.248504,2.11438 1.266555,3.94226 2.195673,3.94226 0.216098,0 0.653948,-0.31024 0.973001,-0.68941 z m -1.671001,-2.01195 c 0,-0.2415 -0.109382,-0.5067 -0.243073,-0.58932 -0.143756,-0.0888 -0.0051,-0.27369 0.339337,-0.45238 0.485849,-0.25207 0.678975,-0.25207 1.164823,0 0.344444,0.17869 0.483093,0.36353 0.339337,0.45238 -0.13369,0.0826 -0.243073,0.34782 -0.243073,0.58932 0,0.33708 -0.157695,0.4391 -0.678675,0.4391 -0.520981,0 -0.678676,-0.10201 -0.678676,-0.4391 z m -2.6103058,-0.55818 c -0.1350366,-0.90048 -0.2276298,-1.03875 -0.6956462,-1.03875 -0.296932,0 -0.5398769,0.1085 -0.5398769,0.2411 0,0.52597 1.0860913,2.1416 1.2975269,1.93017 0.051575,-0.0515 0.023667,-0.5612 -0.062006,-1.13252 z m 7.4890638,0.0636 c 0.455804,-0.88143 0.407488,-1.10229 -0.241141,-1.10229 -0.31106,0 -0.566683,0.12726 -0.568053,0.28279 -0.0014,0.15553 -0.06919,0.68998 -0.150708,1.18768 -0.137451,0.83917 -0.119753,0.88145 0.243632,0.58204 0.215517,-0.17758 0.537839,-0.60517 0.71627,-0.95022 z"
       id="path827"
       inkscape:connector-curvature="0" />
  </g>
</svg>
