<?xml version="1.0" encoding="UTF-8" standalone="no"?>
<!-- Created with Inkscape (http://www.inkscape.org/) -->

<svg
   xmlns:dc="http://purl.org/dc/elements/1.1/"
   xmlns:cc="http://creativecommons.org/ns#"
   xmlns:rdf="http://www.w3.org/1999/02/22-rdf-syntax-ns#"
   xmlns:svg="http://www.w3.org/2000/svg"
   xmlns="http://www.w3.org/2000/svg"
   xmlns:sodipodi="http://sodipodi.sourceforge.net/DTD/sodipodi-0.dtd"
   xmlns:inkscape="http://www.inkscape.org/namespaces/inkscape"
   width="100"
   height="100"
   viewBox="0 0 26.458333 26.458334"
   version="1.1"
   id="svg8"
   inkscape:version="0.92.4 (5da689c313, 2019-01-14)"
   sodipodi:docname="cat_icono_comunicacion_v_ngo.svg">
  <defs
     id="defs2" />
  <sodipodi:namedview
     id="base"
     pagecolor="#ffffff"
     bordercolor="#666666"
     borderopacity="1.0"
     inkscape:pageopacity="0.0"
     inkscape:pageshadow="2"
     inkscape:zoom="1.979899"
     inkscape:cx="50.350237"
     inkscape:cy="60.182644"
     inkscape:document-units="px"
     inkscape:current-layer="layer1"
     showgrid="false"
     units="px"
     inkscape:window-width="944"
     inkscape:window-height="1002"
     inkscape:window-x="0"
     inkscape:window-y="0"
     inkscape:window-maximized="0" />
  <metadata
     id="metadata5">
    <rdf:RDF>
      <cc:Work
         rdf:about="">
        <dc:format>image/svg+xml</dc:format>
        <dc:type
           rdf:resource="http://purl.org/dc/dcmitype/StillImage" />
        <dc:title />
      </cc:Work>
    </rdf:RDF>
  </metadata>
  <g
     inkscape:label="Capa 1"
     inkscape:groupmode="layer"
     id="layer1"
     transform="translate(0,-270.54165)">
    <path
       style="fill:#000000;stroke-width:0.26458332"
       d="m 11.62316,296.07471 c -0.853069,-0.11884 -2.20691,-0.51634 -3.008535,-0.88334 -0.801626,-0.36699 -1.610608,-0.66726 -1.797739,-0.66726 -0.187131,0 -1.136342,0.35718 -2.109358,0.79375 -1.903222,0.85392 -2.7524317,0.97819 -3.2543744,0.47625 -0.506586,-0.50659 -0.374594,-1.42029 0.47625,-3.29678 0.4365625,-0.96282 0.7937504,-1.89832 0.7937504,-2.07889 0,-0.18057 -0.2963056,-0.97552 -0.6584564,-1.76656 -2.0078934,-4.38582 -0.9005928,-10.33032 2.5709074,-13.80182 2.735487,-2.73549 6.886904,-4.16071 10.469029,-3.59413 4.383812,0.69338 7.582365,3.05508 9.475399,6.9963 2.292442,4.77278 1.335673,10.46259 -2.403319,14.2923 -1.604706,1.64364 -4.512392,3.18968 -6.459004,3.43431 -0.671329,0.0844 -1.518255,0.18906 -1.882057,0.23267 -0.363802,0.0436 -1.359424,-0.018 -2.212493,-0.1368 z m 4.207425,-2.48785 c 6.545978,-1.69395 9.610299,-8.59483 6.571919,-14.80001 -1.602607,-3.27295 -5.237949,-5.40367 -9.252405,-5.42294 -2.947502,-0.0142 -5.953827,1.59333 -7.884359,4.21577 -2.328701,3.16332 -2.6339542,7.11426 -0.831436,10.7614 l 0.938038,1.89799 -0.537494,1.25393 c -0.295621,0.68965 -0.489367,1.30205 -0.430545,1.36087 0.05882,0.0588 0.660755,-0.16211 1.337629,-0.49097 l 1.230681,-0.59791 1.539155,0.84616 c 2.553131,1.40359 4.607173,1.67743 7.318817,0.97571 z M 7.265073,284.8414 c -0.841875,-0.58967 -0.702652,-1.92852 0.256238,-2.46413 0.624323,-0.34873 0.769369,-0.34205 1.389062,0.064 0.89397,0.58575 0.947169,1.81991 0.103909,2.41055 -0.738702,0.51741 -0.997841,0.51587 -1.749209,-0.0104 z m 5.231636,-0.1229 c -0.736114,-0.73612 -0.587501,-1.8362 0.316268,-2.34114 0.624376,-0.34884 0.769317,-0.34218 1.389063,0.0639 0.893969,0.58575 0.947168,1.81991 0.103908,2.41055 -0.781218,0.54719 -1.15638,0.51954 -1.809239,-0.13331 z m 5.291666,0 c -0.736113,-0.73612 -0.587501,-1.8362 0.316269,-2.34114 0.624375,-0.34884 0.769316,-0.34218 1.389062,0.0639 0.89397,0.58575 0.947169,1.81991 0.103909,2.41055 -0.781219,0.54719 -1.156381,0.51954 -1.80924,-0.13331 z"
       id="path827"
       inkscape:connector-curvature="0" />
  </g>
</svg>
